<mxfile host="app.diagrams.net" agent="Mozilla/5.0 (Macintosh; Intel Mac OS X 10_15_7) AppleWebKit/537.36 (KHTML, like Gecko) Chrome/130.0.0.0 Safari/537.36" version="24.8.4">
  <diagram id="C5RBs43oDa-KdzZeNtuy" name="Page-1">
    <mxGraphModel dx="1652" dy="971" grid="1" gridSize="10" guides="1" tooltips="1" connect="1" arrows="1" fold="1" page="1" pageScale="1" pageWidth="827" pageHeight="1169" math="0" shadow="0">
      <root>
        <mxCell id="WIyWlLk6GJQsqaUBKTNV-0" />
        <mxCell id="WIyWlLk6GJQsqaUBKTNV-1" parent="WIyWlLk6GJQsqaUBKTNV-0" />
        <mxCell id="11HGyAoRWdLBberuQJMD-2" value="ssa_project" style="rounded=1;whiteSpace=wrap;html=1;" vertex="1" parent="WIyWlLk6GJQsqaUBKTNV-1">
          <mxGeometry x="-420" y="30" width="120" height="70" as="geometry" />
        </mxCell>
        <mxCell id="11HGyAoRWdLBberuQJMD-7" value="users" style="rounded=1;whiteSpace=wrap;html=1;" vertex="1" parent="WIyWlLk6GJQsqaUBKTNV-1">
          <mxGeometry x="-590" y="210" width="125" height="60" as="geometry" />
        </mxCell>
        <mxCell id="11HGyAoRWdLBberuQJMD-8" value="chipin" style="rounded=1;whiteSpace=wrap;html=1;" vertex="1" parent="WIyWlLk6GJQsqaUBKTNV-1">
          <mxGeometry x="-270" y="210" width="120" height="60" as="geometry" />
        </mxCell>
        <mxCell id="11HGyAoRWdLBberuQJMD-12" value="" style="endArrow=none;html=1;rounded=0;entryX=0.5;entryY=1;entryDx=0;entryDy=0;exitX=0.5;exitY=0;exitDx=0;exitDy=0;" edge="1" parent="WIyWlLk6GJQsqaUBKTNV-1" source="11HGyAoRWdLBberuQJMD-7" target="11HGyAoRWdLBberuQJMD-2">
          <mxGeometry width="50" height="50" relative="1" as="geometry">
            <mxPoint x="-340" y="490" as="sourcePoint" />
            <mxPoint x="-360" y="140" as="targetPoint" />
          </mxGeometry>
        </mxCell>
        <mxCell id="11HGyAoRWdLBberuQJMD-14" value="" style="endArrow=none;html=1;rounded=0;entryX=0.5;entryY=1;entryDx=0;entryDy=0;exitX=0.5;exitY=0;exitDx=0;exitDy=0;" edge="1" parent="WIyWlLk6GJQsqaUBKTNV-1" source="11HGyAoRWdLBberuQJMD-8" target="11HGyAoRWdLBberuQJMD-2">
          <mxGeometry width="50" height="50" relative="1" as="geometry">
            <mxPoint x="-562" y="270" as="sourcePoint" />
            <mxPoint x="-350" y="110" as="targetPoint" />
          </mxGeometry>
        </mxCell>
        <mxCell id="11HGyAoRWdLBberuQJMD-19" value="login" style="rounded=1;whiteSpace=wrap;html=1;" vertex="1" parent="WIyWlLk6GJQsqaUBKTNV-1">
          <mxGeometry x="-680" y="350" width="120" height="60" as="geometry" />
        </mxCell>
        <mxCell id="11HGyAoRWdLBberuQJMD-20" value="registration" style="rounded=1;whiteSpace=wrap;html=1;" vertex="1" parent="WIyWlLk6GJQsqaUBKTNV-1">
          <mxGeometry x="-510" y="350" width="120" height="60" as="geometry" />
        </mxCell>
        <mxCell id="11HGyAoRWdLBberuQJMD-21" value="" style="endArrow=none;html=1;rounded=0;entryX=0.5;entryY=1;entryDx=0;entryDy=0;exitX=0.5;exitY=0;exitDx=0;exitDy=0;" edge="1" parent="WIyWlLk6GJQsqaUBKTNV-1" source="11HGyAoRWdLBberuQJMD-19" target="11HGyAoRWdLBberuQJMD-7">
          <mxGeometry width="50" height="50" relative="1" as="geometry">
            <mxPoint x="-490" y="380" as="sourcePoint" />
            <mxPoint x="-380" y="370" as="targetPoint" />
            <Array as="points" />
          </mxGeometry>
        </mxCell>
        <mxCell id="11HGyAoRWdLBberuQJMD-22" value="" style="endArrow=none;html=1;rounded=0;entryX=0.5;entryY=1;entryDx=0;entryDy=0;exitX=0.5;exitY=0;exitDx=0;exitDy=0;" edge="1" parent="WIyWlLk6GJQsqaUBKTNV-1" source="11HGyAoRWdLBberuQJMD-20" target="11HGyAoRWdLBberuQJMD-7">
          <mxGeometry width="50" height="50" relative="1" as="geometry">
            <mxPoint x="-430" y="420" as="sourcePoint" />
            <mxPoint x="-380" y="370" as="targetPoint" />
          </mxGeometry>
        </mxCell>
        <mxCell id="11HGyAoRWdLBberuQJMD-23" value="authentication" style="rounded=1;whiteSpace=wrap;html=1;" vertex="1" parent="WIyWlLk6GJQsqaUBKTNV-1">
          <mxGeometry x="-730" y="510" width="120" height="60" as="geometry" />
        </mxCell>
        <mxCell id="11HGyAoRWdLBberuQJMD-24" value="" style="endArrow=none;html=1;rounded=0;entryX=0.5;entryY=1;entryDx=0;entryDy=0;exitX=0.5;exitY=0;exitDx=0;exitDy=0;" edge="1" parent="WIyWlLk6GJQsqaUBKTNV-1" source="11HGyAoRWdLBberuQJMD-23" target="11HGyAoRWdLBberuQJMD-19">
          <mxGeometry width="50" height="50" relative="1" as="geometry">
            <mxPoint x="-620" y="350" as="sourcePoint" />
            <mxPoint x="-518" y="280" as="targetPoint" />
            <Array as="points" />
          </mxGeometry>
        </mxCell>
        <mxCell id="11HGyAoRWdLBberuQJMD-27" value="" style="endArrow=classic;html=1;rounded=0;" edge="1" parent="WIyWlLk6GJQsqaUBKTNV-1" source="11HGyAoRWdLBberuQJMD-1">
          <mxGeometry width="50" height="50" relative="1" as="geometry">
            <mxPoint x="-517.5" y="150" as="sourcePoint" />
            <mxPoint x="-497.5" y="130" as="targetPoint" />
          </mxGeometry>
        </mxCell>
        <mxCell id="11HGyAoRWdLBberuQJMD-28" value="" style="endArrow=classic;html=1;rounded=0;" edge="1" parent="WIyWlLk6GJQsqaUBKTNV-1" target="11HGyAoRWdLBberuQJMD-1">
          <mxGeometry width="50" height="50" relative="1" as="geometry">
            <mxPoint x="-517.5" y="150" as="sourcePoint" />
            <mxPoint x="-497.5" y="130" as="targetPoint" />
          </mxGeometry>
        </mxCell>
        <mxCell id="11HGyAoRWdLBberuQJMD-1" value="" style="ellipse;whiteSpace=wrap;html=1;aspect=fixed;fillColor=#0F0F0F;rotation=30;" vertex="1" parent="WIyWlLk6GJQsqaUBKTNV-1">
          <mxGeometry x="-530" y="140" width="20" height="20" as="geometry" />
        </mxCell>
        <mxCell id="11HGyAoRWdLBberuQJMD-31" value="" style="ellipse;whiteSpace=wrap;html=1;aspect=fixed;fillColor=#0F0F0F;rotation=30;" vertex="1" parent="WIyWlLk6GJQsqaUBKTNV-1">
          <mxGeometry x="-425" y="300" width="20" height="20" as="geometry" />
        </mxCell>
        <mxCell id="11HGyAoRWdLBberuQJMD-32" value="" style="endArrow=classic;html=1;rounded=0;" edge="1" parent="WIyWlLk6GJQsqaUBKTNV-1">
          <mxGeometry width="50" height="50" relative="1" as="geometry">
            <mxPoint x="-425" y="300" as="sourcePoint" />
            <mxPoint x="-435" y="290" as="targetPoint" />
          </mxGeometry>
        </mxCell>
        <mxCell id="11HGyAoRWdLBberuQJMD-33" value="" style="ellipse;whiteSpace=wrap;html=1;aspect=fixed;fillColor=#F2F2F2;rotation=30;" vertex="1" parent="WIyWlLk6GJQsqaUBKTNV-1">
          <mxGeometry x="-230" y="140" width="20" height="20" as="geometry" />
        </mxCell>
        <mxCell id="11HGyAoRWdLBberuQJMD-34" value="" style="endArrow=classic;html=1;rounded=0;" edge="1" parent="WIyWlLk6GJQsqaUBKTNV-1">
          <mxGeometry width="50" height="50" relative="1" as="geometry">
            <mxPoint x="-210" y="160" as="sourcePoint" />
            <mxPoint x="-190" y="180" as="targetPoint" />
          </mxGeometry>
        </mxCell>
        <mxCell id="11HGyAoRWdLBberuQJMD-36" value="" style="endArrow=classic;html=1;rounded=0;" edge="1" parent="WIyWlLk6GJQsqaUBKTNV-1" source="11HGyAoRWdLBberuQJMD-38">
          <mxGeometry width="50" height="50" relative="1" as="geometry">
            <mxPoint x="-637.75" y="283" as="sourcePoint" />
            <mxPoint x="-622.25" y="270" as="targetPoint" />
          </mxGeometry>
        </mxCell>
        <mxCell id="11HGyAoRWdLBberuQJMD-39" value="" style="endArrow=classic;html=1;rounded=0;" edge="1" parent="WIyWlLk6GJQsqaUBKTNV-1" target="11HGyAoRWdLBberuQJMD-38">
          <mxGeometry width="50" height="50" relative="1" as="geometry">
            <mxPoint x="-637.75" y="283" as="sourcePoint" />
            <mxPoint x="-622.25" y="270" as="targetPoint" />
          </mxGeometry>
        </mxCell>
        <mxCell id="11HGyAoRWdLBberuQJMD-38" value="" style="ellipse;whiteSpace=wrap;html=1;aspect=fixed;fillColor=#0F0F0F;rotation=30;" vertex="1" parent="WIyWlLk6GJQsqaUBKTNV-1">
          <mxGeometry x="-650" y="280" width="20" height="20" as="geometry" />
        </mxCell>
        <mxCell id="11HGyAoRWdLBberuQJMD-43" value="" style="endArrow=none;html=1;rounded=0;" edge="1" parent="WIyWlLk6GJQsqaUBKTNV-1">
          <mxGeometry width="50" height="50" relative="1" as="geometry">
            <mxPoint x="-360" y="130" as="sourcePoint" />
            <mxPoint x="-380" y="110" as="targetPoint" />
          </mxGeometry>
        </mxCell>
        <mxCell id="11HGyAoRWdLBberuQJMD-44" value="" style="endArrow=none;html=1;rounded=0;" edge="1" parent="WIyWlLk6GJQsqaUBKTNV-1">
          <mxGeometry width="50" height="50" relative="1" as="geometry">
            <mxPoint x="-340" y="110" as="sourcePoint" />
            <mxPoint x="-360" y="130" as="targetPoint" />
          </mxGeometry>
        </mxCell>
        <mxCell id="11HGyAoRWdLBberuQJMD-48" value="" style="endArrow=none;html=1;rounded=0;" edge="1" parent="WIyWlLk6GJQsqaUBKTNV-1">
          <mxGeometry width="50" height="50" relative="1" as="geometry">
            <mxPoint x="-530" y="290" as="sourcePoint" />
            <mxPoint x="-520" y="280" as="targetPoint" />
          </mxGeometry>
        </mxCell>
        <mxCell id="11HGyAoRWdLBberuQJMD-49" value="" style="endArrow=none;html=1;rounded=0;" edge="1" parent="WIyWlLk6GJQsqaUBKTNV-1">
          <mxGeometry width="50" height="50" relative="1" as="geometry">
            <mxPoint x="-530" y="290" as="sourcePoint" />
            <mxPoint x="-540" y="280" as="targetPoint" />
          </mxGeometry>
        </mxCell>
        <mxCell id="11HGyAoRWdLBberuQJMD-88" style="edgeStyle=orthogonalEdgeStyle;rounded=0;orthogonalLoop=1;jettySize=auto;html=1;" edge="1" parent="WIyWlLk6GJQsqaUBKTNV-1" source="11HGyAoRWdLBberuQJMD-50">
          <mxGeometry relative="1" as="geometry">
            <mxPoint x="-690" y="475" as="targetPoint" />
          </mxGeometry>
        </mxCell>
        <mxCell id="11HGyAoRWdLBberuQJMD-50" value="" style="ellipse;whiteSpace=wrap;html=1;aspect=fixed;fillColor=#F5F5F5;rotation=30;" vertex="1" parent="WIyWlLk6GJQsqaUBKTNV-1">
          <mxGeometry x="-700" y="430" width="20" height="20" as="geometry" />
        </mxCell>
        <mxCell id="11HGyAoRWdLBberuQJMD-53" value="" style="endArrow=none;html=1;rounded=0;exitX=0.5;exitY=0;exitDx=0;exitDy=0;" edge="1" parent="WIyWlLk6GJQsqaUBKTNV-1">
          <mxGeometry width="50" height="50" relative="1" as="geometry">
            <mxPoint x="-123" y="350" as="sourcePoint" />
            <mxPoint x="-210" y="270" as="targetPoint" />
          </mxGeometry>
        </mxCell>
        <mxCell id="11HGyAoRWdLBberuQJMD-54" value="" style="endArrow=none;html=1;rounded=0;entryX=0.5;entryY=1;entryDx=0;entryDy=0;exitX=0.5;exitY=0;exitDx=0;exitDy=0;" edge="1" parent="WIyWlLk6GJQsqaUBKTNV-1" source="11HGyAoRWdLBberuQJMD-55" target="11HGyAoRWdLBberuQJMD-8">
          <mxGeometry width="50" height="50" relative="1" as="geometry">
            <mxPoint x="-260" y="360" as="sourcePoint" />
            <mxPoint x="-227" y="310" as="targetPoint" />
          </mxGeometry>
        </mxCell>
        <mxCell id="11HGyAoRWdLBberuQJMD-55" value="create group" style="rounded=1;whiteSpace=wrap;html=1;" vertex="1" parent="WIyWlLk6GJQsqaUBKTNV-1">
          <mxGeometry x="-350" y="370" width="120" height="60" as="geometry" />
        </mxCell>
        <mxCell id="11HGyAoRWdLBberuQJMD-56" value="groups" style="rounded=1;whiteSpace=wrap;html=1;" vertex="1" parent="WIyWlLk6GJQsqaUBKTNV-1">
          <mxGeometry x="-160" y="350" width="120" height="60" as="geometry" />
        </mxCell>
        <mxCell id="11HGyAoRWdLBberuQJMD-57" value="invite members" style="rounded=1;whiteSpace=wrap;html=1;" vertex="1" parent="WIyWlLk6GJQsqaUBKTNV-1">
          <mxGeometry x="-386.5" y="500" width="120" height="60" as="geometry" />
        </mxCell>
        <mxCell id="11HGyAoRWdLBberuQJMD-58" value="" style="endArrow=none;html=1;rounded=0;entryX=0.5;entryY=1;entryDx=0;entryDy=0;exitX=0.5;exitY=0;exitDx=0;exitDy=0;" edge="1" parent="WIyWlLk6GJQsqaUBKTNV-1" source="11HGyAoRWdLBberuQJMD-57" target="11HGyAoRWdLBberuQJMD-55">
          <mxGeometry width="50" height="50" relative="1" as="geometry">
            <mxPoint x="-360" y="490" as="sourcePoint" />
            <mxPoint x="-310" y="440" as="targetPoint" />
          </mxGeometry>
        </mxCell>
        <mxCell id="11HGyAoRWdLBberuQJMD-59" value="" style="endArrow=classic;html=1;rounded=0;" edge="1" parent="WIyWlLk6GJQsqaUBKTNV-1">
          <mxGeometry width="50" height="50" relative="1" as="geometry">
            <mxPoint x="-320" y="453" as="sourcePoint" />
            <mxPoint x="-330" y="470" as="targetPoint" />
          </mxGeometry>
        </mxCell>
        <mxCell id="11HGyAoRWdLBberuQJMD-60" value="" style="endArrow=classic;html=1;rounded=0;" edge="1" parent="WIyWlLk6GJQsqaUBKTNV-1">
          <mxGeometry width="50" height="50" relative="1" as="geometry">
            <mxPoint x="-600" y="460" as="sourcePoint" />
            <mxPoint x="-600" y="460" as="targetPoint" />
          </mxGeometry>
        </mxCell>
        <mxCell id="11HGyAoRWdLBberuQJMD-61" value="" style="ellipse;whiteSpace=wrap;html=1;aspect=fixed;fillColor=#F5F5F5;rotation=30;" vertex="1" parent="WIyWlLk6GJQsqaUBKTNV-1">
          <mxGeometry x="-326" y="440" width="20" height="20" as="geometry" />
        </mxCell>
        <mxCell id="11HGyAoRWdLBberuQJMD-62" value="" style="endArrow=none;html=1;rounded=0;" edge="1" parent="WIyWlLk6GJQsqaUBKTNV-1">
          <mxGeometry width="50" height="50" relative="1" as="geometry">
            <mxPoint x="-210" y="290" as="sourcePoint" />
            <mxPoint x="-220" y="280" as="targetPoint" />
          </mxGeometry>
        </mxCell>
        <mxCell id="11HGyAoRWdLBberuQJMD-63" value="" style="endArrow=none;html=1;rounded=0;" edge="1" parent="WIyWlLk6GJQsqaUBKTNV-1">
          <mxGeometry width="50" height="50" relative="1" as="geometry">
            <mxPoint x="-210" y="290" as="sourcePoint" />
            <mxPoint x="-200" y="280" as="targetPoint" />
          </mxGeometry>
        </mxCell>
        <mxCell id="11HGyAoRWdLBberuQJMD-64" value="repetition (I don&#39;t know how to get the circle arrow)" style="text;html=1;align=center;verticalAlign=middle;whiteSpace=wrap;rounded=0;" vertex="1" parent="WIyWlLk6GJQsqaUBKTNV-1">
          <mxGeometry x="-420" y="150" width="130" height="30" as="geometry" />
        </mxCell>
        <mxCell id="11HGyAoRWdLBberuQJMD-65" value="rep" style="text;html=1;align=center;verticalAlign=middle;whiteSpace=wrap;rounded=0;" vertex="1" parent="WIyWlLk6GJQsqaUBKTNV-1">
          <mxGeometry x="-240" y="310" width="60" height="30" as="geometry" />
        </mxCell>
        <mxCell id="11HGyAoRWdLBberuQJMD-66" value="rep" style="text;html=1;align=center;verticalAlign=middle;whiteSpace=wrap;rounded=0;" vertex="1" parent="WIyWlLk6GJQsqaUBKTNV-1">
          <mxGeometry x="-560" y="290" width="60" height="30" as="geometry" />
        </mxCell>
        <mxCell id="11HGyAoRWdLBberuQJMD-67" value="" style="endArrow=classic;html=1;rounded=0;" edge="1" parent="WIyWlLk6GJQsqaUBKTNV-1">
          <mxGeometry width="50" height="50" relative="1" as="geometry">
            <mxPoint x="-415" y="310" as="sourcePoint" />
            <mxPoint x="-425" y="300" as="targetPoint" />
          </mxGeometry>
        </mxCell>
        <mxCell id="11HGyAoRWdLBberuQJMD-69" value="" style="ellipse;whiteSpace=wrap;html=1;aspect=fixed;fillColor=#0F0F0F;rotation=30;" vertex="1" parent="WIyWlLk6GJQsqaUBKTNV-1">
          <mxGeometry x="-120" y="295" width="20" height="20" as="geometry" />
        </mxCell>
        <mxCell id="11HGyAoRWdLBberuQJMD-70" value="" style="endArrow=classic;html=1;rounded=0;" edge="1" parent="WIyWlLk6GJQsqaUBKTNV-1">
          <mxGeometry width="50" height="50" relative="1" as="geometry">
            <mxPoint x="-120" y="295" as="sourcePoint" />
            <mxPoint x="-130" y="285" as="targetPoint" />
          </mxGeometry>
        </mxCell>
        <mxCell id="11HGyAoRWdLBberuQJMD-71" value="" style="endArrow=classic;html=1;rounded=0;" edge="1" parent="WIyWlLk6GJQsqaUBKTNV-1">
          <mxGeometry width="50" height="50" relative="1" as="geometry">
            <mxPoint x="-295" y="315" as="sourcePoint" />
            <mxPoint x="-305" y="332" as="targetPoint" />
          </mxGeometry>
        </mxCell>
        <mxCell id="11HGyAoRWdLBberuQJMD-73" value="" style="ellipse;whiteSpace=wrap;html=1;aspect=fixed;fillColor=#F5F5F5;rotation=30;" vertex="1" parent="WIyWlLk6GJQsqaUBKTNV-1">
          <mxGeometry x="-300" y="300" width="20" height="20" as="geometry" />
        </mxCell>
        <mxCell id="11HGyAoRWdLBberuQJMD-74" value="" style="endArrow=none;html=1;rounded=0;exitX=0.5;exitY=1;exitDx=0;exitDy=0;" edge="1" parent="WIyWlLk6GJQsqaUBKTNV-1" source="11HGyAoRWdLBberuQJMD-20" target="11HGyAoRWdLBberuQJMD-75">
          <mxGeometry width="50" height="50" relative="1" as="geometry">
            <mxPoint x="-440" y="360" as="sourcePoint" />
            <mxPoint x="-440" y="540" as="targetPoint" />
          </mxGeometry>
        </mxCell>
        <mxCell id="11HGyAoRWdLBberuQJMD-75" value="profile creation" style="rounded=1;whiteSpace=wrap;html=1;" vertex="1" parent="WIyWlLk6GJQsqaUBKTNV-1">
          <mxGeometry x="-485" y="580" width="120" height="60" as="geometry" />
        </mxCell>
        <mxCell id="11HGyAoRWdLBberuQJMD-77" value="" style="ellipse;whiteSpace=wrap;html=1;aspect=fixed;fillColor=#F5F5F5;rotation=30;" vertex="1" parent="WIyWlLk6GJQsqaUBKTNV-1">
          <mxGeometry x="-485" y="420" width="20" height="20" as="geometry" />
        </mxCell>
        <mxCell id="11HGyAoRWdLBberuQJMD-79" value="" style="endArrow=classic;html=1;rounded=0;" edge="1" parent="WIyWlLk6GJQsqaUBKTNV-1">
          <mxGeometry width="50" height="50" relative="1" as="geometry">
            <mxPoint x="-472" y="440" as="sourcePoint" />
            <mxPoint x="-472" y="460" as="targetPoint" />
          </mxGeometry>
        </mxCell>
        <mxCell id="11HGyAoRWdLBberuQJMD-80" value="username, email" style="text;html=1;align=center;verticalAlign=middle;whiteSpace=wrap;rounded=0;" vertex="1" parent="WIyWlLk6GJQsqaUBKTNV-1">
          <mxGeometry x="-505" y="470" width="60" height="30" as="geometry" />
        </mxCell>
        <mxCell id="11HGyAoRWdLBberuQJMD-89" value="user details" style="text;html=1;align=center;verticalAlign=middle;whiteSpace=wrap;rounded=0;" vertex="1" parent="WIyWlLk6GJQsqaUBKTNV-1">
          <mxGeometry x="-760" y="460" width="60" height="30" as="geometry" />
        </mxCell>
        <mxCell id="11HGyAoRWdLBberuQJMD-91" value="leave group" style="rounded=1;whiteSpace=wrap;html=1;" vertex="1" parent="WIyWlLk6GJQsqaUBKTNV-1">
          <mxGeometry x="-220" y="470" width="120" height="60" as="geometry" />
        </mxCell>
        <mxCell id="11HGyAoRWdLBberuQJMD-92" value="delete group" style="rounded=1;whiteSpace=wrap;html=1;" vertex="1" parent="WIyWlLk6GJQsqaUBKTNV-1">
          <mxGeometry x="-90" y="470" width="120" height="60" as="geometry" />
        </mxCell>
        <mxCell id="11HGyAoRWdLBberuQJMD-93" value="" style="endArrow=none;html=1;rounded=0;entryX=0.5;entryY=1;entryDx=0;entryDy=0;exitX=0.5;exitY=0;exitDx=0;exitDy=0;" edge="1" parent="WIyWlLk6GJQsqaUBKTNV-1" source="11HGyAoRWdLBberuQJMD-91" target="11HGyAoRWdLBberuQJMD-56">
          <mxGeometry width="50" height="50" relative="1" as="geometry">
            <mxPoint x="-130" y="380" as="sourcePoint" />
            <mxPoint x="-80" y="330" as="targetPoint" />
          </mxGeometry>
        </mxCell>
        <mxCell id="11HGyAoRWdLBberuQJMD-94" value="" style="endArrow=none;html=1;rounded=0;entryX=0.5;entryY=1;entryDx=0;entryDy=0;exitX=0.5;exitY=0;exitDx=0;exitDy=0;" edge="1" parent="WIyWlLk6GJQsqaUBKTNV-1" source="11HGyAoRWdLBberuQJMD-92" target="11HGyAoRWdLBberuQJMD-56">
          <mxGeometry width="50" height="50" relative="1" as="geometry">
            <mxPoint x="-150" y="480" as="sourcePoint" />
            <mxPoint x="-90" y="420" as="targetPoint" />
          </mxGeometry>
        </mxCell>
        <mxCell id="11HGyAoRWdLBberuQJMD-95" value="rep" style="text;html=1;align=center;verticalAlign=middle;whiteSpace=wrap;rounded=0;" vertex="1" parent="WIyWlLk6GJQsqaUBKTNV-1">
          <mxGeometry x="-130" y="435" width="60" height="30" as="geometry" />
        </mxCell>
        <mxCell id="11HGyAoRWdLBberuQJMD-97" value="" style="endArrow=none;html=1;rounded=0;" edge="1" parent="WIyWlLk6GJQsqaUBKTNV-1">
          <mxGeometry width="50" height="50" relative="1" as="geometry">
            <mxPoint x="-100" y="430" as="sourcePoint" />
            <mxPoint x="-110" y="420" as="targetPoint" />
          </mxGeometry>
        </mxCell>
        <mxCell id="11HGyAoRWdLBberuQJMD-98" value="" style="endArrow=none;html=1;rounded=0;" edge="1" parent="WIyWlLk6GJQsqaUBKTNV-1">
          <mxGeometry width="50" height="50" relative="1" as="geometry">
            <mxPoint x="-90" y="420" as="sourcePoint" />
            <mxPoint x="-100" y="430" as="targetPoint" />
          </mxGeometry>
        </mxCell>
        <mxCell id="11HGyAoRWdLBberuQJMD-99" value="chipin" style="ellipse;whiteSpace=wrap;html=1;aspect=fixed;" vertex="1" parent="WIyWlLk6GJQsqaUBKTNV-1">
          <mxGeometry x="479" y="65" width="80" height="80" as="geometry" />
        </mxCell>
        <mxCell id="11HGyAoRWdLBberuQJMD-127" style="edgeStyle=orthogonalEdgeStyle;rounded=0;orthogonalLoop=1;jettySize=auto;html=1;entryX=0.5;entryY=0;entryDx=0;entryDy=0;" edge="1" parent="WIyWlLk6GJQsqaUBKTNV-1" source="11HGyAoRWdLBberuQJMD-100" target="11HGyAoRWdLBberuQJMD-99">
          <mxGeometry relative="1" as="geometry">
            <Array as="points">
              <mxPoint x="189" y="45" />
              <mxPoint x="519" y="45" />
            </Array>
          </mxGeometry>
        </mxCell>
        <mxCell id="11HGyAoRWdLBberuQJMD-100" value="Contribution Data" style="rounded=0;whiteSpace=wrap;html=1;" vertex="1" parent="WIyWlLk6GJQsqaUBKTNV-1">
          <mxGeometry x="129" y="350" width="120" height="60" as="geometry" />
        </mxCell>
        <mxCell id="11HGyAoRWdLBberuQJMD-101" value="Student Registrion Details" style="rounded=0;whiteSpace=wrap;html=1;" vertex="1" parent="WIyWlLk6GJQsqaUBKTNV-1">
          <mxGeometry x="239" y="110" width="120" height="60" as="geometry" />
        </mxCell>
        <mxCell id="11HGyAoRWdLBberuQJMD-102" value="Spending Limit" style="rounded=0;whiteSpace=wrap;html=1;" vertex="1" parent="WIyWlLk6GJQsqaUBKTNV-1">
          <mxGeometry x="579" y="160" width="120" height="60" as="geometry" />
        </mxCell>
        <mxCell id="11HGyAoRWdLBberuQJMD-103" value="Students" style="whiteSpace=wrap;html=1;aspect=fixed;" vertex="1" parent="WIyWlLk6GJQsqaUBKTNV-1">
          <mxGeometry x="309" y="270" width="80" height="80" as="geometry" />
        </mxCell>
        <mxCell id="11HGyAoRWdLBberuQJMD-104" value="Trusted Adults" style="whiteSpace=wrap;html=1;aspect=fixed;" vertex="1" parent="WIyWlLk6GJQsqaUBKTNV-1">
          <mxGeometry x="599" y="260" width="80" height="80" as="geometry" />
        </mxCell>
        <mxCell id="11HGyAoRWdLBberuQJMD-107" value="Event Mangaement" style="ellipse;whiteSpace=wrap;html=1;aspect=fixed;" vertex="1" parent="WIyWlLk6GJQsqaUBKTNV-1">
          <mxGeometry x="459" y="350" width="80" height="80" as="geometry" />
        </mxCell>
        <mxCell id="11HGyAoRWdLBberuQJMD-109" style="edgeStyle=orthogonalEdgeStyle;rounded=0;orthogonalLoop=1;jettySize=auto;html=1;exitX=1;exitY=1;exitDx=0;exitDy=0;entryX=0;entryY=0.75;entryDx=0;entryDy=0;entryPerimeter=0;" edge="1" parent="WIyWlLk6GJQsqaUBKTNV-1" source="11HGyAoRWdLBberuQJMD-103" target="11HGyAoRWdLBberuQJMD-107">
          <mxGeometry relative="1" as="geometry" />
        </mxCell>
        <mxCell id="11HGyAoRWdLBberuQJMD-110" value="student registration details&lt;br&gt;&lt;br&gt;contribution data" style="text;html=1;align=center;verticalAlign=middle;whiteSpace=wrap;rounded=0;" vertex="1" parent="WIyWlLk6GJQsqaUBKTNV-1">
          <mxGeometry x="329" y="440" width="150" height="30" as="geometry" />
        </mxCell>
        <mxCell id="11HGyAoRWdLBberuQJMD-111" value="" style="endArrow=classic;html=1;rounded=0;exitX=0.5;exitY=0;exitDx=0;exitDy=0;" edge="1" parent="WIyWlLk6GJQsqaUBKTNV-1" source="11HGyAoRWdLBberuQJMD-103">
          <mxGeometry width="50" height="50" relative="1" as="geometry">
            <mxPoint x="449" y="190" as="sourcePoint" />
            <mxPoint x="499" y="140" as="targetPoint" />
          </mxGeometry>
        </mxCell>
        <mxCell id="11HGyAoRWdLBberuQJMD-113" value="" style="endArrow=classic;html=1;rounded=0;exitX=0.5;exitY=1;exitDx=0;exitDy=0;entryX=0.392;entryY=0.02;entryDx=0;entryDy=0;entryPerimeter=0;" edge="1" parent="WIyWlLk6GJQsqaUBKTNV-1" source="11HGyAoRWdLBberuQJMD-101" target="11HGyAoRWdLBberuQJMD-103">
          <mxGeometry width="50" height="50" relative="1" as="geometry">
            <mxPoint x="469" y="250" as="sourcePoint" />
            <mxPoint x="519" y="200" as="targetPoint" />
          </mxGeometry>
        </mxCell>
        <mxCell id="11HGyAoRWdLBberuQJMD-115" value="" style="endArrow=classic;html=1;rounded=0;entryX=0;entryY=1;entryDx=0;entryDy=0;exitX=1;exitY=0.5;exitDx=0;exitDy=0;" edge="1" parent="WIyWlLk6GJQsqaUBKTNV-1" source="11HGyAoRWdLBberuQJMD-100" target="11HGyAoRWdLBberuQJMD-103">
          <mxGeometry width="50" height="50" relative="1" as="geometry">
            <mxPoint x="309" y="270" as="sourcePoint" />
            <mxPoint x="359" y="220" as="targetPoint" />
          </mxGeometry>
        </mxCell>
        <mxCell id="11HGyAoRWdLBberuQJMD-116" value="" style="endArrow=classic;html=1;rounded=0;entryX=0.5;entryY=0;entryDx=0;entryDy=0;exitX=0.5;exitY=1;exitDx=0;exitDy=0;" edge="1" parent="WIyWlLk6GJQsqaUBKTNV-1" source="11HGyAoRWdLBberuQJMD-102" target="11HGyAoRWdLBberuQJMD-104">
          <mxGeometry width="50" height="50" relative="1" as="geometry">
            <mxPoint x="449" y="220" as="sourcePoint" />
            <mxPoint x="499" y="170" as="targetPoint" />
          </mxGeometry>
        </mxCell>
        <mxCell id="11HGyAoRWdLBberuQJMD-117" value="" style="endArrow=classic;html=1;rounded=0;entryX=1;entryY=0.5;entryDx=0;entryDy=0;exitX=0.5;exitY=1;exitDx=0;exitDy=0;" edge="1" parent="WIyWlLk6GJQsqaUBKTNV-1" source="11HGyAoRWdLBberuQJMD-104" target="11HGyAoRWdLBberuQJMD-107">
          <mxGeometry width="50" height="50" relative="1" as="geometry">
            <mxPoint x="449" y="220" as="sourcePoint" />
            <mxPoint x="499" y="170" as="targetPoint" />
          </mxGeometry>
        </mxCell>
        <mxCell id="11HGyAoRWdLBberuQJMD-118" value="Spending Limit" style="text;html=1;align=center;verticalAlign=middle;whiteSpace=wrap;rounded=0;" vertex="1" parent="WIyWlLk6GJQsqaUBKTNV-1">
          <mxGeometry x="579" y="375" width="60" height="30" as="geometry" />
        </mxCell>
        <mxCell id="11HGyAoRWdLBberuQJMD-119" value="" style="endArrow=classic;html=1;rounded=0;exitX=0.5;exitY=0;exitDx=0;exitDy=0;entryX=1;entryY=0.5;entryDx=0;entryDy=0;" edge="1" parent="WIyWlLk6GJQsqaUBKTNV-1" source="11HGyAoRWdLBberuQJMD-107" target="11HGyAoRWdLBberuQJMD-103">
          <mxGeometry width="50" height="50" relative="1" as="geometry">
            <mxPoint x="379" y="310" as="sourcePoint" />
            <mxPoint x="429" y="260" as="targetPoint" />
          </mxGeometry>
        </mxCell>
        <mxCell id="11HGyAoRWdLBberuQJMD-120" value="" style="endArrow=classic;html=1;rounded=0;entryX=0;entryY=0.5;entryDx=0;entryDy=0;exitX=0.5;exitY=0;exitDx=0;exitDy=0;" edge="1" parent="WIyWlLk6GJQsqaUBKTNV-1" source="11HGyAoRWdLBberuQJMD-107" target="11HGyAoRWdLBberuQJMD-104">
          <mxGeometry width="50" height="50" relative="1" as="geometry">
            <mxPoint x="379" y="310" as="sourcePoint" />
            <mxPoint x="429" y="260" as="targetPoint" />
          </mxGeometry>
        </mxCell>
        <mxCell id="11HGyAoRWdLBberuQJMD-121" value="Balance Notifications" style="text;html=1;align=center;verticalAlign=middle;whiteSpace=wrap;rounded=0;" vertex="1" parent="WIyWlLk6GJQsqaUBKTNV-1">
          <mxGeometry x="429" y="295" width="60" height="30" as="geometry" />
        </mxCell>
        <mxCell id="11HGyAoRWdLBberuQJMD-122" value="Balance Notifications" style="text;html=1;align=center;verticalAlign=middle;whiteSpace=wrap;rounded=0;" vertex="1" parent="WIyWlLk6GJQsqaUBKTNV-1">
          <mxGeometry x="512.5" y="285" width="60" height="30" as="geometry" />
        </mxCell>
        <mxCell id="11HGyAoRWdLBberuQJMD-123" value="" style="endArrow=classic;html=1;rounded=0;entryX=1;entryY=0;entryDx=0;entryDy=0;exitX=0.5;exitY=1;exitDx=0;exitDy=0;" edge="1" parent="WIyWlLk6GJQsqaUBKTNV-1" source="11HGyAoRWdLBberuQJMD-99" target="11HGyAoRWdLBberuQJMD-103">
          <mxGeometry width="50" height="50" relative="1" as="geometry">
            <mxPoint x="399" y="350" as="sourcePoint" />
            <mxPoint x="509" y="190" as="targetPoint" />
          </mxGeometry>
        </mxCell>
        <mxCell id="11HGyAoRWdLBberuQJMD-124" value="contribution data" style="text;html=1;align=center;verticalAlign=middle;whiteSpace=wrap;rounded=0;" vertex="1" parent="WIyWlLk6GJQsqaUBKTNV-1">
          <mxGeometry x="449" y="220" width="60" height="30" as="geometry" />
        </mxCell>
      </root>
    </mxGraphModel>
  </diagram>
</mxfile>
